SplineFontDB: 3.2
FontName: Alloquot-CondLig
FullName: Alloquot Condensed Light
FamilyName: Alloquot Condensed
Weight: Light
Copyright: Copyright (c) 2022, RandomMaerks (Bao Nguyen) || For more information, please send a letter to rmforbusiness@gmail.com
UComments: "2022-10-21: Created with FontForge (http://fontforge.org)"
Version: 1.0
ItalicAngle: 0
UnderlinePosition: -100
UnderlineWidth: 50
Ascent: 800
Descent: 200
InvalidEm: 0
LayerCount: 2
Layer: 0 0 "Back" 1
Layer: 1 0 "Fore" 0
XUID: [1021 36 -67577861 31271]
FSType: 0
OS2Version: 0
OS2_WeightWidthSlopeOnly: 0
OS2_UseTypoMetrics: 1
CreationTime: 1666365685
ModificationTime: 1666411941
PfmFamily: 33
TTFWeight: 300
TTFWidth: 3
LineGap: 90
VLineGap: 0
OS2TypoAscent: 0
OS2TypoAOffset: 1
OS2TypoDescent: 0
OS2TypoDOffset: 1
OS2TypoLinegap: 90
OS2WinAscent: 0
OS2WinAOffset: 1
OS2WinDescent: 0
OS2WinDOffset: 1
HheadAscent: 0
HheadAOffset: 1
HheadDescent: 0
HheadDOffset: 1
OS2FamilyClass: 1284
OS2Vendor: 'Rand'
MarkAttachClasses: 1
DEI: 91125
LangName: 1033 "" "" "" "" "" "" "" "" "RandomMaerks" "RandomMaerks" "" "https://randommaerks.gumroad.com" "https://www.behance.net/notrandom"
Encoding: UnicodeFull
UnicodeInterp: none
NameList: AGL For New Fonts
DisplaySize: -36
AntiAlias: 1
FitToEm: 0
WinInfo: 70 14 5
BeginPrivate: 0
EndPrivate
Grid
-976 750 m 0
 1886 750 l 1024
  Named: "ascender line"
-976 700 m 0
 1886 700 l 1024
  Named: "cap height"
-976 500 m 0
 1886 500 l 1024
  Named: "x-height"
EndSplineSet
BeginChars: 1114112 27

StartChar: n
Encoding: 110 110 0
Width: 319
Flags: HW
LayerCount: 2
Fore
SplineSet
92 384 m 5
 92 0 l 5
 50 0 l 5
 50 500 l 5
 82 500 l 5
 87 384 l 5
 72 384 l 5
 72 467.977539062 114.589806378 511 174.01171875 511 c 4
 231.260630829 511 272 467.3671875 272 382 c 6
 272 0 l 5
 230 0 l 5
 230 373 l 6
 230 440.4453125 202.517578125 469 161.569335938 469 c 4
 126.43073634 469 92 441 92 384 c 5
EndSplineSet
EndChar

StartChar: h
Encoding: 104 104 1
Width: 319
Flags: HW
LayerCount: 2
Fore
SplineSet
92 384 m 1
 92 0 l 1
 50 0 l 1
 50 750 l 1
 90 750 l 5
 90 384 l 5
 72 384 l 1
 72 467.977539062 114.589806378 511 174.01171875 511 c 0
 231.260630829 511 272 467.3671875 272 382 c 2
 272 0 l 1
 230 0 l 1
 230 373 l 2
 230 440.4453125 202.517578125 469 161.569335938 469 c 0
 126.43073634 469 92 441 92 384 c 1
EndSplineSet
EndChar

StartChar: m
Encoding: 109 109 2
Width: 479
Flags: HW
LayerCount: 2
Fore
SplineSet
262 384 m 1
 242 384 l 0
 242 467.977539062 282.502310603 511 339.01171875 511 c 0
 393.339418652 511 432 467.3671875 432 382 c 2
 432 0 l 1
 390 0 l 1
 390 373 l 2
 390 440.4453125 364.525626874 469 326.569335938 469 c 0
 293.95617367 469 262 441 262 384 c 1
 262 0 l 1
 220 0 l 1
 220 373 l 2
 220 440.4453125 194.525626874 469 156.569335938 469 c 0
 123.95617367 469 92 441 92 384 c 1
 92 0 l 1
 50 0 l 1
 50 500 l 1
 82 500 l 1
 87 384 l 1
 72 384 l 1
 72 467.977539062 112.502310603 511 169.01171875 511 c 0
 223.339418652 511 262 468.043665213 262 384 c 1
EndSplineSet
EndChar

StartChar: u
Encoding: 117 117 3
Width: 319
Flags: HW
LayerCount: 2
Fore
SplineSet
227 116 m 1
 227 500 l 1
 269 500 l 1
 269 0 l 1
 237 0 l 1
 232 116 l 1
 247 116 l 1
 247 32.0224609375 204.41015625 -11 144.98828125 -11 c 0
 87.7392578125 -11 47 32.6328125 47 118 c 2
 47 500 l 1
 89 500 l 1
 89 127 l 2
 89 59.5546875 116.482421875 31 157.430664062 31 c 0
 192.569335938 31 227 59 227 116 c 1
EndSplineSet
EndChar

StartChar: i
Encoding: 105 105 4
Width: 142
Flags: HW
LayerCount: 2
Fore
SplineSet
97 580 m 1
 45 580 l 1
 45 652 l 1
 97 652 l 1
 97 580 l 1
92 0 m 5
 50 0 l 5
 50 500 l 5
 92 500 l 5
 92 0 l 5
EndSplineSet
EndChar

StartChar: l
Encoding: 108 108 5
Width: 142
Flags: HW
LayerCount: 2
Fore
SplineSet
92 0 m 5
 50 0 l 5
 50 750 l 5
 92 750 l 5
 92 0 l 5
EndSplineSet
EndChar

StartChar: o
Encoding: 111 111 6
Width: 316
Flags: HW
LayerCount: 2
Fore
SplineSet
47 121 m 6
 47 381 l 6
 47 460.520507812 90.8876953125 511 160.0234375 511 c 4
 227.771484375 511 269 462.1953125 269 382 c 6
 269 122 l 6
 269 42.4794921875 225.112304688 -8 155.9765625 -8 c 4
 88.228515625 -8 47 40.8046875 47 121 c 6
89 374 m 6
 89 130 l 6
 89 68.2470703125 112.413085938 34 154.631835938 34 c 4
 198.95703125 34 227 70.8125 227 129 c 6
 227 373 l 6
 227 434.752929688 203.586914062 469 161.368164062 469 c 4
 117.04296875 469 89 432.1875 89 374 c 6
EndSplineSet
EndChar

StartChar: c
Encoding: 99 99 7
Width: 316
Flags: HW
LayerCount: 2
Fore
SplineSet
89 374 m 6
 89 130 l 6
 89 68.2470703125 112.413085938 34 154.631835938 34 c 4
 198.95703125 34 227 70.8125 227 129 c 6
 227 154 l 5
 269 154 l 5
 269 122 l 6
 269 42.4794921875 225.112304688 -8 155.9765625 -8 c 4
 88.228515625 -8 47 40.8046875 47 121 c 6
 47 381 l 6
 47 460.520507812 90.8876953125 511 160.0234375 511 c 4
 227.771484375 511 269 462.1953125 269 382 c 6
 269 350 l 5
 227 350 l 5
 227 373 l 6
 227 434.752929688 203.586914062 469 161.368164062 469 c 4
 117.04296875 469 89 432.1875 89 374 c 6
EndSplineSet
EndChar

StartChar: e
Encoding: 101 101 8
Width: 316
Flags: HW
LayerCount: 2
Fore
SplineSet
89 374 m 6
 89 130 l 6
 89 68.2470703125 112.413085938 34 154.631835938 34 c 4
 198.95703125 34 227 70.8125 227 129 c 6
 227 154 l 5
 269 154 l 5
 269 122 l 6
 269 42.4794921875 225.112304688 -8 155.9765625 -8 c 4
 88.228515625 -8 47 40.8046875 47 121 c 6
 47 381 l 6
 47 460.520507812 90.8876953125 511 160.0234375 511 c 4
 227.771484375 511 269 462.1953125 269 382 c 6
 269 240 l 5
 71 240 l 5
 71 280 l 5
 227 280 l 5
 227 373 l 6
 227 434.752929688 203.586914062 469 161.368164062 469 c 4
 117.04296875 469 89 432.1875 89 374 c 6
EndSplineSet
EndChar

StartChar: a
Encoding: 97 97 9
Width: 319
Flags: HW
LayerCount: 2
Fore
SplineSet
228.100585938 49.6640625 m 5
 209.208007812 13.044921875 176.71484375 -8 139.068359375 -8 c 4
 79.5517578125 -8 40 42.939453125 40 119.591796875 c 4
 40 213.684570312 100.234375 283 182 283 c 6
 238 283 l 5
 238 243 l 5
 187 243 l 6
 123.551757812 243 82 194.912109375 82 121.483398438 c 4
 82 66.0419921875 105.486328125 34 146.124023438 34 c 4
 191.668945312 34 220 74.267578125 220 139 c 6
 220 373 l 6
 220 434.826171875 198.31640625 469 159.088867188 469 c 4
 118.047851562 469 92 432.116210938 92 374 c 6
 92 349 l 5
 50 349 l 5
 50 381 l 6
 50 450.4921875 91.9208984375 511 157.8984375 511 c 4
 222.633789062 511 262 455.21875 262 382 c 6
 262 152 l 6
 262 101.333007812 269 36.8486328125 285 0 c 5
 244 0 l 5
 236.392578125 13 229.309570312 27.59375 228.100585938 49.6640625 c 5
EndSplineSet
EndChar

StartChar: s
Encoding: 115 115 10
Width: 316
Flags: HW
LayerCount: 2
Fore
SplineSet
89 384.360902161 m 0
 89 325 126 303 169.821028413 278.873815818 c 0
 215 254 269 226 269 128.242685957 c 0
 269 40 225 -7 157.213619108 -7 c 0
 88 -7 47 42 47 122 c 2
 47 154 l 1
 89 154 l 1
 89 131 l 2
 89 69 112 35 155.824644947 35 c 0
 199 35 227 68 227 123.736728105 c 0
 227 192 185 216 140 242 c 0
 95 268 47 296 47 381.826950763 c 0
 47 464 91 511 158.786380892 511 c 0
 228 511 269 462 269 382 c 2
 269 350 l 1
 227 350 l 1
 227 373 l 2
 227 435 204 469 160.175355053 469 c 0
 117 469 89 436 89 384.360902161 c 0
EndSplineSet
EndChar

StartChar: r
Encoding: 114 114 11
Width: 249
Flags: HW
LayerCount: 2
Fore
SplineSet
221 497 m 5
 207 457 l 5
 193 465 178 469 162 469 c 4
 127 469 92 441 92 384 c 6
 92 0 l 5
 50 0 l 5
 50 500 l 5
 82 500 l 5
 87 384 l 5
 72 384 l 5
 72 468 115 511 174 511 c 4
 190 511 206 506 221 497 c 5
EndSplineSet
EndChar

StartChar: b
Encoding: 98 98 13
Width: 319
Flags: HW
LayerCount: 2
Fore
SplineSet
92 116 m 4
 92 59 126.43073634 31 161.569335938 31 c 4
 202.517578125 31 230 59.5546875 230 127 c 4
 230 373 l 4
 230 440.4453125 202.517578125 469 161.569335938 469 c 4
 126.43073634 469 92 441 92 384 c 4
 92 116 l 4
50 750 m 5
 89 750 l 5
 89 384 l 5
 72 384 l 5
 72 467.977539062 114.589806378 511 174.01171875 511 c 4
 231.260630829 511 272 467.3671875 272 382 c 4
 272 118 l 4
 272 32.6328125 231.260630829 -11 174.01171875 -11 c 4
 114.589806378 -11 72 32.022460938 72 116 c 5
 86 116 l 5
 82 0 l 5
 50 0 l 5
 50 750 l 5
EndSplineSet
EndChar

StartChar: d
Encoding: 100 100 14
Width: 319
Flags: HW
LayerCount: 2
Fore
SplineSet
227 116 m 4
 227 384 l 4
 227 441 192.56926366 469 157.430664062 469 c 4
 116.482421875 469 89 440.4453125 89 373 c 4
 89 127 l 4
 89 59.5546875 116.482421875 31 157.430664062 31 c 4
 192.56926366 31 227 59 227 116 c 4
  Spiro
    227 384 o
    216.791 431.333 o
    191.053 459.648 o
    157.431 469 o
    121.521 459.119 o
    97.6249 427.822 o
    89 373 o
    89 127 o
    97.6249 72.1781 o
    121.521 40.8809 o
    157.431 31 o
    191.053 40.3516 o
    216.791 68.6674 o
    227 116 o
    0 0 z
  EndSpiro
269 750 m 5
 269 0 l 5
 237 0 l 5
 233 116 l 5
 247 116 l 5
 247 32.022460938 204.410193622 -11 144.98828125 -11 c 4
 87.739369171 -11 47 32.6328125 47 118 c 4
 47 382 l 4
 47 467.3671875 87.739369171 511 144.98828125 511 c 4
 204.410193622 511 247 467.977539062 247 384 c 5
 230 384 l 5
 230 750 l 5
 269 750 l 5
  Spiro
    269 0 v
    237 0 v
    233 116 v
    247 116 v
    233.783 45.8072 o
    197.8 3.23581 o
    144.988 -11 o
    94.1835 3.4451 o
    59.6579 46.6719 o
    47 118 o
    47 382 o
    59.6579 453.328 o
    94.1835 496.555 o
    144.988 511 o
    197.8 496.764 o
    233.783 454.193 o
    247 384 v
    230 384 v
    230 750 v
    269 750 v
    0 0 z
  EndSpiro
EndSplineSet
EndChar

StartChar: q
Encoding: 113 113 15
Width: 319
Flags: HW
LayerCount: 2
Fore
SplineSet
227 384 m 4
 227 441 192.56926366 469 157.430664062 469 c 4
 116.482421875 469 89 440.4453125 89 373 c 4
 89 127 l 4
 89 59.5546875 116.482421875 31 157.430664062 31 c 4
 192.56926366 31 227 59 227 116 c 4
 227 384 l 4
  Spiro
    227 384 o
    216.791 431.333 o
    191.053 459.648 o
    157.431 469 o
    121.521 459.119 o
    97.6249 427.822 o
    89 373 o
    89 127 o
    97.6249 72.1781 o
    121.521 40.8809 o
    157.431 31 o
    191.053 40.3516 o
    216.791 68.6674 o
    227 116 o
    0 0 z
  EndSpiro
269 -200 m 1
 230 -200 l 1
 230 116 l 1
 247 116 l 1
 247 32.022460938 204.410193622 -11 144.98828125 -11 c 0
 87.739369171 -11 47 32.6328125 47 118 c 0
 47 382 l 0
 47 467.3671875 87.739369171 511 144.98828125 511 c 0
 204.410193622 511 247 467.977539062 247 384 c 1
 233 384 l 1
 237 500 l 1
 269 500 l 1
 269 -200 l 1
EndSplineSet
EndChar

StartChar: p
Encoding: 112 112 16
Width: 319
Flags: HW
LayerCount: 2
Fore
SplineSet
92 384 m 0
 92 116 l 0
 92 59 126.43073634 31 161.569335938 31 c 0
 202.517578125 31 230 59.5546875 230 127 c 0
 230 373 l 0
 230 440.4453125 202.517578125 469 161.569335938 469 c 0
 126.43073634 469 92 441 92 384 c 0
50 -200 m 5
 50 500 l 1
 82 500 l 1
 86 384 l 1
 72 384 l 1
 72 467.977539062 114.589806378 511 174.01171875 511 c 0
 231.260630829 511 272 467.3671875 272 382 c 0
 272 118 l 0
 272 32.6328125 231.260630829 -11 174.01171875 -11 c 0
 114.589806378 -11 72 32.022460938 72 116 c 1
 89 116 l 1
 89 -200 l 5
 50 -200 l 5
EndSplineSet
EndChar

StartChar: t
Encoding: 116 116 17
Width: 289
Flags: HW
LayerCount: 2
Fore
SplineSet
261 3 m 1
 247 43 l 1
 232.04296875 35.150390625 215.73046875 31 199.840820312 31 c 0
 156.087890625 31 132 59.1796875 132 116 c 2
 132 459 l 5
 246 459 l 5
 246 500 l 5
 132 500 l 5
 132 670 l 1
 90 660 l 1
 90 500 l 5
 28 490 l 5
 28 459 l 5
 90 459 l 5
 90 106 l 2
 90 35.7900390625 134.903320312 -11 197.681640625 -11 c 0
 216.90625 -11 239.724609375 -5.955078125 261 3 c 1
EndSplineSet
EndChar

StartChar: f
Encoding: 102 102 18
Width: 289
Flags: HW
LayerCount: 2
Fore
SplineSet
261 746 m 5
 247 706 l 5
 232.04296875 713.849609375 215.73046875 718 199.840820312 718 c 4
 156.087890625 718 132 689.8203125 132 633 c 6
 132 500 l 5
 246 500 l 5
 246 459 l 5
 132 459 l 5
 132 0 l 5
 90 0 l 5
 90 459 l 5
 28 459 l 5
 28 490 l 5
 90 500 l 5
 90 643 l 6
 90 713.209960938 134.903320312 760 197.681640625 760 c 4
 216.90625 760 239.724609375 754.955078125 261 746 c 5
EndSplineSet
EndChar

StartChar: j
Encoding: 106 106 19
Width: 142
Flags: HW
LayerCount: 2
Fore
SplineSet
97 580 m 1
 45 580 l 1
 45 652 l 1
 97 652 l 1
 97 580 l 1
92 500 m 5
 92 -53 l 6
 92 -123 47.0966796875 -170 -15.681640625 -170 c 4
 -34.90625 -170 -57.724609375 -164.955078125 -79 -156 c 5
 -65 -116 l 5
 -50.04296875 -123.849609375 -33.73046875 -128 -17.8408203125 -128 c 4
 25.912109375 -128 50 -100 50 -43 c 6
 50 500 l 5
 92 500 l 5
EndSplineSet
EndChar

StartChar: g
Encoding: 103 103 20
Width: 319
Flags: HW
LayerCount: 2
Fore
SplineSet
38.728515625 -71 m 1
 38.728515625 -156.3671875 85.5385948602 -200 151.318359375 -200 c 0
 219.926672614 -200 269 -153 269 -83 c 2
 269 500 l 1
 237 500 l 1
 233 384 l 1
 247 384 l 1
 247 467.977539062 204.410193622 511 144.98828125 511 c 0
 87.739369171 511 47 467.3671875 47 382 c 2
 47 138 l 2
 47 52.6328125 87.739369171 9 144.98828125 9 c 0
 204.410193622 9 247 52.022460938 247 136 c 1
 227 136 l 1
 227 -73 l 2
 227 -130 194.10024294 -158 149.159179688 -158 c 0
 104 -158 80.728515625 -132.122314453 80.728515625 -71 c 1
 38.728515625 -71 l 1
227 384 m 2
 227 136 l 2
 227 79 192.56926366 51 157.430664062 51 c 0
 116.482421875 51 89 79.5546875 89 147 c 2
 89 373 l 2
 89 440.4453125 116.482421875 469 157.430664062 469 c 0
 192.56926366 469 227 441 227 384 c 2
EndSplineSet
EndChar

StartChar: v
Encoding: 118 118 21
Width: 336
Flags: HW
LayerCount: 2
Fore
SplineSet
170 53.8330078125 m 5
 267 500 l 5
 311 500 l 5
 201 0 l 5
 135 0 l 5
 25 500 l 5
 71 500 l 5
 170 53.8330078125 l 5
EndSplineSet
EndChar

StartChar: w
Encoding: 119 119 22
Width: 556
Flags: HW
LayerCount: 2
Fore
SplineSet
395 55.8330078125 m 1
 487 500 l 1
 531 500 l 1
 426 0 l 1
 360 0 l 1
 278 430.4765625 l 1
 196 0 l 1
 130 0 l 1
 25 500 l 1
 71 500 l 1
 165 55.8330078125 l 1
 247 500 l 1
 311 500 l 1
 395 55.8330078125 l 1
EndSplineSet
EndChar

StartChar: x
Encoding: 120 120 23
Width: 336
Flags: HW
LayerCount: 2
Fore
SplineSet
170 278 m 5
 263 500 l 5
 311 500 l 5
 201 250 l 5
 311 0 l 5
 261 0 l 5
 166 222 l 5
 73 0 l 5
 25 0 l 5
 135 250 l 5
 25 500 l 5
 75 500 l 5
 170 278 l 5
EndSplineSet
EndChar

StartChar: y
Encoding: 121 121 24
Width: 336
Flags: HW
LayerCount: 2
Fore
SplineSet
170 53.8330078125 m 1
 267 500 l 1
 311 500 l 1
 192 -43 l 2
 175.468672283 -107.711151223 143.096679688 -160 84.318359375 -160 c 0
 65.09375 -160 42.275390625 -154.955078125 21 -146 c 1
 35 -106 l 1
 49.95703125 -113.849609375 66.26953125 -118 82.1591796875 -118 c 0
 121.912109375 -118 135.138461538 -87.4923076923 150 -33 c 2
 159 0 l 1
 135 0 l 1
 25 500 l 1
 71 500 l 1
 170 53.8330078125 l 1
EndSplineSet
EndChar

StartChar: z
Encoding: 122 122 25
Width: 288
Flags: HW
LayerCount: 2
Fore
SplineSet
35 500 m 5
 35 459 l 5
 213.52734375 459 l 5
 35 51 l 5
 35 0 l 5
 253 0 l 5
 253 41 l 5
 74.47265625 41 l 5
 253 449 l 5
 253 500 l 5
 35 500 l 5
EndSplineSet
EndChar

StartChar: k
Encoding: 107 107 26
Width: 336
Flags: HWO
LayerCount: 2
Fore
SplineSet
92 0 m 1
 50 0 l 1
 50 750 l 1
 92 750 l 1
 92 209.466019417 l 1
 267 500 l 1
 313 500 l 1
 165 251 l 1
 313 0 l 1
 263 0 l 1
 138 212 l 1
 92 138 l 1
 92 0 l 1
EndSplineSet
EndChar
